<?xml version="1.0" encoding="UTF-8"?>
<svg class="h-30 w-90 transition-color transition-250 text-white fill-white" viewBox="0 0 109 37" xmlns="http://www.w3.org/2000/svg">
<path d="M17.428 1.165c-.485 0-1.212.034-1.649.054-.173.008-.298.014-.33.014a9.47 9.47 0 01-.242-.01l-2.08-.058c-.465 0-.489.066-.489.08 0 .027.051.057.194.057.232 0 .66 0 .98.045.2.024.357.084.49.173v10.023L4.962.65V.605l-.021.02-.019-.02V.64L2.57 2.845v10.188l-1.72 2.24c1.3.362 1.673 1.302 1.721 2.439v.648l2.393-2.24V4.266l11.714 13.53v-.018l.015.018V1.393h-.017a.906.906 0 01.184-.046c.196-.022.54-.045.752-.045.126 0 .17-.03.17-.057 0-.014-.018-.08-.352-.08zm-3.126 12.97L4.962 3.29V1.63l9.34 10.828v1.677zM28.47 1.158l-.916-.916-.918.916c-4.105.456-7.3 3.935-7.3 8.163a8.217 8.217 0 007.3 8.164l.918.916.916-.916a8.216 8.216 0 000-16.327zm.105 14.017l-1.021-1.021-1.023 1.02a5.945 5.945 0 01-4.925-5.853 5.944 5.944 0 014.925-5.853l1.023 1.02 1.02-1.02A5.944 5.944 0 0133.5 9.32a5.945 5.945 0 01-4.925 5.854zm18.062-7.231l-5.42-6.75h-2.21v16.435h2.334V4.84l.003.003.001-2.602 5.26 6.608v2.485L51.86 4.84v12.788h2.347V1.194h-2.184l-5.386 6.75zm57.26-4.568c.56 0 1.126.058 1.692.163l.952.95 2.124-2.123L106.54.242l-1.094 1.093c-.573-.09-1.13-.141-1.665-.141-2.442 0-4.496.797-6.16 2.389-1.666 1.593-2.498 3.557-2.498 5.892a8.07 8.07 0 001.09 4.1 7.952 7.952 0 002.964 2.975c1.248.719 2.768 1.079 4.559 1.079.535 0 1.054-.03 1.558-.084l.945-2.19-.014-.137a9.526 9.526 0 01-2.351.298c-1.86 0-3.388-.566-4.583-1.7-1.195-1.133-1.792-2.58-1.792-4.341 0-1.746.607-3.2 1.821-4.358 1.214-1.161 2.739-1.741 4.577-1.741zM89.87 2.138l1.897 1.897L90.5 5.302l.35.35v3.574l-.7.699.7.698v7.006l2.304-2.257v-4.75l.698-.697-.698-.7V5.65l.346-.347-1.268-1.267 1.89-1.888V2.13L92 .007l-2.131 2.13zm-4.72 1.336a6.808 6.808 0 00-.483-.452c-.054-.047-.113-.088-.168-.132a7.022 7.022 0 00-.341-.262c-.07-.05-.141-.093-.212-.14-.107-.068-.212-.137-.32-.2-.077-.044-.156-.085-.234-.127-.105-.055-.208-.111-.314-.162a7.924 7.924 0 00-.25-.111 7.639 7.639 0 00-.882-.331 10.073 10.073 0 00-.575-.162L81.1 1.33c-.04-.01-.08-.02-.12-.028v.004c-1.71-.361-3.39-.31-4.544-.31-.224 0-.45.004-.672.007v-.001l-.242.005h-3.529a43.343 43.343 0 00-.946-.01c-.246 0-.338.039-.346.08.047 0 .08.003.125.003.151 0 .3.003.43.009.054.003.1.01.151.014.104.007.21.014.303.027.062.009.116.026.175.038.076.016.154.029.227.05.076.024.151.059.226.09.054.022.106.037.159.062a4.953 4.953 0 01.862.546c.053.044.104.086.145.124v14.356a5.03 5.03 0 01-.707.577 2.943 2.943 0 01-.476.255 1.218 1.218 0 01-.25.075c-.029.006-.064.008-.094.013-.066.01-.13.02-.203.026-.046.004-.099.004-.149.007-.064.003-.125.007-.195.008h-.212l-.183.002h-.001c.02.028.093.26.34.26h3.936c.934.066 2.084 0 3.018 0 .41 0 .793-.021 1.161-.055l.035-.003c2.928-.284 4.56-1.574 5.387-2.44 1.148-1.208 2.203-3.155 2.325-5.665h.011c.008-.152.011-.306.011-.462 0-2.586-1.02-4.39-2.108-5.52zM77.892 15.35a8.026 8.026 0 01-2.16-.298v1.576l-.02-.006a4.048 4.048 0 01-.209-.064l-.062-.021a2.276 2.276 0 01-.429-.216 1.333 1.333 0 01-.313-.31c-.019-.026-.033-.074-.05-.12-.008-.025-.02-.045-.028-.076a2.017 2.017 0 01-.037-.174c-.007-.031-.013-.057-.019-.091a5.724 5.724 0 01-.035-.261c-.002-.021-.006-.04-.007-.06a14.874 14.874 0 01-.062-.869c-.022-.412-.044-2.411-.044-4.715V6.95l.001-.93c.005-.953.011-1.962.017-2.742l.004-1.043a.5.5 0 01.016-.142c.02-.081.075-.127.224-.196l-.006-.008.006.008.02-.01c.132-.065.616-.118 1.033-.14v2.004a8.026 8.026 0 012.16-.297c3.845 0 6.96 2.663 6.96 5.947 0 3.285-3.115 5.948-6.96 5.948zM63.999 1.185h-.844l-.5 1.175-.522-1.175h-2.715l1.915 4.28L56.15 17.65h.727l4.87-11.26 5.035 11.26h2.664L63.078 3.312l.92-2.127z" fill="currentColor"/>
<path d="M38.401 21.282l.29.073.335-.073c.174.223.262.387.262.494 0 .26-.388 1.052-1.164 2.37.02.127.073.19.16.19h.946c.193-.087 1.852-.252 4.974-.495l.916-.131.291-.073c.34.049.635.073.887.073.078-.077.461-.145 1.15-.203.203.048.397.072.581.072h.233a.415.415 0 00.233-.058l.101.058c.437-.096.732-.145.888-.145.213 0 .446.049.698.145a.878.878 0 01.465-.145h.7a.42.42 0 00.231-.058.42.42 0 00.233.058h.407c.165 0 .32-.02.466-.058.145.038.3.058.465.058-.543.058-.228.087.945.087-.009-.01.03-.014.117-.014.126-.087.237-.131.334-.131.562.038.887.058.975.058v-.043l.422.116 1.92-.131.348.058.727-.131.06.146.726-.073h.757c.067 0 .101.024.101.073-.019 0-.029-.024-.029-.073l.626-.073c.338.049.596.073.77.073v.218l-.378-.218h.364c.145 0 .315-.024.51-.073l.115.073.888-.145.276.145a.399.399 0 00.204-.073c.077 0 .116.024.116.073a8.74 8.74 0 01.916-.073h1.164l.35-.072c.086.038.13.087.13.145.106 0 .276-.044.51-.131l.29.13c.077-.048.154-.023.232.074h.015v.188h.203c.04-.27.083-.406.132-.406h1.367l.232.406h.291c.048-.183.073-.3.073-.348.02 0 .03.029.03.087l-.132-.145c.213 0 .48.136.8.406.116 0 .174-.072.174-.217h-.174l.146-.146.174-.03c.03.31.155.466.378.466 0-.271-.189-.383-.567-.334h.96l-.087.334h.174c.146 0 .286-.067.422-.203.107 0 .238.072.393.218l.175-.102-.074-.174v-.044c0 .029.01.044.03.044 0-.05.164.038.494.26h.233c0-.144.121-.255.363-.333a.455.455 0 00.248.058c-.088.058-.049.087.116.087 0-.05.068-.03.204.058.03 0 .111-.024.247-.072h.218a.55.55 0 00.073-.131h.262c.01.02.014.096.014.232l.131.146c-.097 0-.228-.058-.393-.175v-.087l.117.073c-.407.126-.626.189-.655.189h-.29c-.136 0-.316-.02-.539-.058l-.233.13a3.556 3.556 0 00-.625-.072h-.073c-.27.165-.407.199-.407.1a.752.752 0 00-.349-.1c-.126.097-.218.145-.276.145l-.335-.087v.146h-.378v-.132h-.117c-.077.098-.358.165-.843.205 0-.05-.087-.073-.262-.073h-.102c-.378.097-.649.146-.814.146l-.422-.073-.218.13-.29-.057c-.098 0-.35.043-.757.13-.544-.087-.844-.18-.902-.276h-.1c-.128.135-.215.204-.264.204a.637.637 0 00-.363-.131h-.059c-.077 0-.349.11-.814.334l-.102-.058h-1.294c-.146 0-.315.02-.509.058a.502.502 0 00-.248-.058c-.223 0-.334.034-.334.1a.784.784 0 00-.422-.1h-.349c-.039 0-.194.043-.465.13h-.233c-.087 0-.262-.043-.524-.13l-.814.203c-.03 0-.083-.024-.16-.072-1.193.087-2.206.13-3.04.13h-.233c-.145 0-.32.025-.524.073l-.276-.131-1.702.13-.29-.072c-.146.058-.219.102-.219.13l-.537-.057h-.815c-.223 0-.514.049-.873.145a.47.47 0 01-.276-.072l-1.993.13-.349-.072c-.29.097-.485.146-.582.146l-.582-.073c-2.51.146-5.725.43-9.642.858.03.01-.098.242-.379.698 0 .107-.31.762-.93 1.963-.737 2.163-1.106 3.302-1.106 3.418 0 .049.02.117.058.205-.116.465-.174.94-.174 1.425v.61c.097.573.421.859.974.859.631 0 1.804-.568 3.52-1.702.504-.31.95-.626 1.338-.945.504-.543 1.086-1.305 1.745-2.284l.088.13a5.242 5.242 0 01-.48 1.586c-1.24 1.504-2.119 2.366-2.633 2.589-.242.252-.61.524-1.105.815-.989.679-1.833 1.018-2.53 1.018-.806-.116-1.393-.403-1.76-.858 0-.175-.097-.398-.292-.67l.06-.116v-.145a.855.855 0 00-.176-.494v-.117l.116-.204v-.407c0-.165.02-.373.06-.625a.554.554 0 01-.06-.19c.117-.678.35-1.47.698-2.37.058-.563.214-.994.466-1.294.116-.602.291-1.052.523-1.353.272-.523.407-.863.407-1.018a.396.396 0 01-.203-.073l-5.018.96c-.339-.175-.558-.37-.654-.582l.058-.35.145-.32c3.19-.697 5.406-1.114 6.648-1.25.59-.853.887-1.406.887-1.658.145-.193.412-.732.8-1.614l.087-.058zm30.85 2.123h.32v.305l-.16.364a.91.91 0 00-.452-.146c0-.31.097-.485.291-.523zm3.723.044h.261v-.305h-.26v.305zm1.86.334h.495v-.508h-.495v.508zm.99-.204h.262v-.305h-.262v.305zm.494.044c-.174-.03-.26-.121-.26-.276h.26v.276zm.291 0c.02 0 .03.039.03.116l.51-.131h-.685l.145.015zm.96-.16v.087c.02 0-.019.049-.116.146h-.029c-.097-.126-.049-.204.145-.233zm.292.392h.261v-.305h-.26v.305zm1.875-.348h-.305v-.03h.146v.059l.03.058.13-.087z"/>
<path d="M46.793 29.266c0 .408-.529 1.411-1.586 3.011-.359.766-.538 1.377-.538 1.833 0 .165.097.247.291.247h.247c.882-.281 2.226-1.406 4.03-3.375.3-.058.45-.222.45-.494.01-.067.043-.101.102-.101h.043c.05 0 .097.048.146.145v.145c0 .156-.179.452-.538.887-.146.456-.78 1.236-1.906 2.342-.746.679-1.507 1.158-2.283 1.44h-.189c-.776 0-1.29-.315-1.542-.946 0-.096-.015-.145-.044-.145.03-.126.064-.189.102-.189l-.058-.101v-.35c.107-.621.572-1.479 1.396-2.575 0-.076.16-.305.481-.682.203-.379.305-.626.305-.742v-.059h-.204c-.785.436-1.493.655-2.123.655h-.044c-.039 0-.305.329-.8.989a.618.618 0 01-.29.087h-.045c-.174 0-.324-.13-.45-.393.02-.174.17-.354.45-.537 0-.059.03-.142.088-.249l-.335-.392v-.058c0-.184.111-.349.335-.495h.35l.741-.189.35.247c.872-.203 1.565-.421 2.078-.653.136 0 .267-.015.393-.044.204 0 .403.247.597.741z"/>
<path d="M49.76 29.979h.116a.49.49 0 01.467.292v.174c-.66 1.24-.99 2.25-.99 3.025v.64c0 .3.117.514.35.64h.464c.514 0 1.427-.582 2.736-1.745.115 0 .232-.116.348-.35.059 0 .582-.543 1.57-1.63.059 0 .117-.115.175-.348.233-.154.408-.232.524-.232h.058c.077.009.117.049.117.116-.33 1.038-.99 2.123-1.979 3.259-1.154 1.105-2.143 1.764-2.966 1.977l-.583.117c-1.357-.155-2.036-.815-2.036-1.978-.048 0-.088-.116-.117-.35.292-1.532.718-2.56 1.28-3.083l.467-.524zm3.2-4.77c.408.077.62.116.64.116v.174c-.136.437-.776 1.038-1.92 1.804-.573.349-.998.524-1.28.524-.388-.05-.581-.243-.581-.582 0-.291.62-.737 1.861-1.338.31-.233.737-.466 1.28-.698z"/>
<path d="M60.32 23.797h.115c.33 0 .592.136.786.408v.058c-.3 1.027-.62 1.803-.96 2.326.02.39-.562 1.243-1.745 2.56v.06c.814 0 1.236.348 1.265 1.047.02.416-.127 1.154-.436 2.21h.174c.882-.28 2.007-1.009 3.375-2.18h.116c.077.008.116.046.116.115.02.397-.494 1.105-1.54 2.123-.66.563-1.354.912-2.08 1.047a5.088 5.088 0 00-.758-.058c-.058 0-.519.504-1.382 1.513-.697.31-1.216.465-1.556.465-.824-.262-1.255-.844-1.294-1.746l-.015-.29.538-2.327c0-.029-.237-.146-.712-.349-.078-.126-.117-.223-.117-.29-.009-.059.102-.175.335-.35l.116.06c.68 0 1.11-.273 1.295-.816 0-.127.198-.475.596-1.048.834-1.483 1.77-2.782 2.807-3.898.591-.417.911-.63.96-.64zm-4.059 7.331c-.456.95-.669 1.823-.64 2.617.02.505.165.757.436.757.427 0 1.014-.407 1.76-1.22l-.014-.06c-.912-.649-1.382-1.328-1.41-2.036l-.132-.058zm1.178-2.5v.057h.058c.64-.408 1.363-1.24 2.167-2.502.194-.466.36-.699.495-.699l-.015-.406h-.058c-.223 0-.649.464-1.28 1.395-.378.4-.834 1.116-1.367 2.154zm.175 2.733c.02.368.247.678.683.931h.175c.436-.64.644-1.24.625-1.804l-.072-.232a.383.383 0 00.043-.234l-.174-.116h-.117c-.688 0-1.076.446-1.163 1.34v.115z"/>
<path d="M64.756 29.15c.242 0 .509.165.8.494 0 .534-.131.984-.393 1.353-.95 1.106-1.73 1.712-2.342 1.818l-.654.305v.205c0 .446.393.668 1.178.668a6.44 6.44 0 001.593-.356c.528-.19 1.267-.84 2.218-1.957.184-.406.494-.8.93-1.178h.219c0 .137.034.248.102.335v.13c-1 2.27-2.488 3.598-4.465 3.987a2.18 2.18 0 00-.626.101c-1.202 0-2.007-.6-2.414-1.803l-.073-.874h.247c.117-.727.747-1.55 1.89-2.472.738-.505 1.334-.757 1.79-.757zm-2.415 2.807c1.125-.387 1.89-.998 2.298-1.834v-.058c-.01-.038 0-.058.029-.058-.707.147-1.454.796-2.24 1.95h-.087zm6.269-1.73l.146.29-.233.117h-.35v-.32l.437-.088z"/>
</svg>
