<svg id="result" xmlns="http://www.w3.org/2000/svg" width="107.815" height="36.081" viewBox="0 0 107.815 36.081">
  <path id="Path_871" data-name="Path 871" d="M17.428,1.165c-.485,0-1.212.034-1.649.054-.173.008-.3.014-.33.014q-.121,0-.242-.01l-2.08-.058c-.465,0-.489.066-.489.08s.051.057.194.057a7.811,7.811,0,0,1,.98.045,1.089,1.089,0,0,1,.49.173V11.543L4.962.65V.605l-.021.02L4.922.605V.64L2.57,2.845V13.033L.85,15.273a2.3,2.3,0,0,1,1.721,2.439v.648l2.393-2.24V4.266L16.678,17.8v-.018l.015.018V1.393h-.017a.906.906,0,0,1,.184-.046c.2-.022.54-.045.752-.045.126,0,.17-.03.17-.057s-.018-.08-.352-.08ZM14.3,14.135,4.962,3.29V1.63L14.3,12.458ZM28.47,1.158,27.554.242l-.918.916a8.215,8.215,0,0,0,0,16.327l.92.916.916-.916a8.216,8.216,0,0,0,0-16.327Zm.1,14.017-1.021-1.021-1.023,1.02a5.94,5.94,0,0,1,0-11.706l1.023,1.02,1.02-1.02a5.94,5.94,0,0,1,0,11.706ZM46.637,7.944l-5.42-6.75h-2.21V17.629h2.334V4.84l0,0v-2.6l5.26,6.608v2.485L51.86,4.84V17.628h2.347V1.194H52.023ZM103.9,3.376a9.285,9.285,0,0,1,1.692.163l.952.95,2.124-2.123L106.54.242l-1.094,1.093a10.775,10.775,0,0,0-1.665-.141,8.57,8.57,0,0,0-6.16,2.389,7.829,7.829,0,0,0-2.5,5.892,8.07,8.07,0,0,0,1.09,4.1,7.952,7.952,0,0,0,2.964,2.975,9,9,0,0,0,4.559,1.079,14.605,14.605,0,0,0,1.558-.084l.945-2.19-.014-.137a9.526,9.526,0,0,1-2.351.3,6.388,6.388,0,0,1-4.583-1.7A5.719,5.719,0,0,1,97.5,9.475,5.773,5.773,0,0,1,99.32,5.117,6.357,6.357,0,0,1,103.9,3.376ZM89.87,2.138l1.9,1.9L90.5,5.3l.35.35V9.226l-.7.7.7.7v7.006l2.3-2.257v-4.75l.7-.7-.7-.7V5.65L93.5,5.3,92.232,4.036l1.89-1.888V2.13L92,.007l-2.131,2.13ZM85.15,3.474q-.23-.238-.483-.452c-.054-.047-.113-.088-.168-.132q-.166-.136-.341-.262c-.07-.05-.141-.093-.212-.14-.107-.068-.212-.137-.32-.2-.077-.044-.156-.085-.234-.127-.105-.055-.208-.111-.314-.162q-.124-.058-.25-.111a7.639,7.639,0,0,0-.882-.331q-.285-.09-.575-.162L81.1,1.33c-.04-.01-.08-.02-.12-.028v0A21.319,21.319,0,0,0,76.436,1c-.224,0-.45,0-.672.007h0l-.242,0H71.993Q71.52,1,71.047,1c-.246,0-.338.039-.346.08.047,0,.08,0,.125,0,.151,0,.3,0,.43.009.054,0,.1.01.151.014.1.007.21.014.3.027.062.009.116.026.175.038.076.016.154.029.227.05s.151.059.226.09c.054.022.106.037.159.062a4.953,4.953,0,0,1,.862.546c.053.044.1.086.145.124V16.4a5.03,5.03,0,0,1-.707.577,2.943,2.943,0,0,1-.476.255,1.218,1.218,0,0,1-.25.075c-.029.006-.064.008-.094.013-.066.01-.13.02-.2.026-.046,0-.1,0-.149.007s-.125.007-.195.008h-.212l-.183,0h0a.385.385,0,0,0,.34.26H75.31c.934.066,2.084,0,3.018,0,.41,0,.793-.021,1.161-.055l.035,0a8.255,8.255,0,0,0,5.387-2.44,8.849,8.849,0,0,0,2.325-5.665h.011c.008-.152.011-.306.011-.462a7.759,7.759,0,0,0-2.108-5.52ZM77.892,15.35a8.026,8.026,0,0,1-2.16-.3v1.576l-.02-.006q-.105-.029-.209-.064l-.062-.021a2.276,2.276,0,0,1-.429-.216,1.333,1.333,0,0,1-.313-.31.587.587,0,0,1-.05-.12c-.008-.025-.02-.045-.028-.076q-.022-.086-.037-.174c-.007-.031-.013-.057-.019-.091q-.021-.13-.035-.261c0-.021-.006-.04-.007-.06q-.044-.433-.062-.869c-.022-.412-.044-2.411-.044-4.715V6.02c0-.953.011-1.962.017-2.742l0-1.043a.5.5,0,0,1,.016-.142c.02-.081.075-.127.224-.2l-.006-.008.006.008.02-.01a4.317,4.317,0,0,1,1.033-.14v2a8.026,8.026,0,0,1,2.16-.3c3.845,0,6.96,2.663,6.96,5.947s-3.115,5.948-6.96,5.948ZM64,1.185h-.844l-.5,1.175-.522-1.175H59.418l1.915,4.28L56.15,17.65h.727l4.87-11.26,5.035,11.26h2.664L63.078,3.312,64,1.185Z" transform="translate(-0.85 -0.007)" fill="#644531"/>
  <path id="Path_872" data-name="Path 872" d="M38.4,21.282l.29.073.335-.073a1.006,1.006,0,0,1,.262.494,8.8,8.8,0,0,1-1.164,2.37c.02.127.073.19.16.19h.946a49.873,49.873,0,0,1,4.974-.5l.916-.131.291-.073a6.314,6.314,0,0,0,.887.073,3.133,3.133,0,0,1,1.15-.2,2.528,2.528,0,0,0,.581.072h.233a.415.415,0,0,0,.233-.058l.1.058a5.141,5.141,0,0,1,.888-.145,1.977,1.977,0,0,1,.7.145.878.878,0,0,1,.465-.145h.7a.493.493,0,0,1,.464,0h.407a1.842,1.842,0,0,0,.466-.058,1.828,1.828,0,0,0,.465.058q-.814.087.945.087c-.009-.01.03-.014.117-.014a.614.614,0,0,1,.334-.131c.562.038.887.058.975.058v-.043l.422.116,1.92-.131.348.058.727-.131.06.146.726-.073h.757c.067,0,.1.024.1.073-.019,0-.029-.024-.029-.073l.626-.073a5.836,5.836,0,0,0,.77.073v.218l-.378-.218h.364a2.129,2.129,0,0,0,.51-.073l.115.073.888-.145.276.145a.4.4,0,0,0,.2-.073c.077,0,.116.024.116.073a8.74,8.74,0,0,1,.916-.073h1.164l.35-.072c.086.038.13.087.13.145a1.7,1.7,0,0,0,.51-.131l.29.13c.077-.048.154-.023.232.074h.015v.188h.2c.04-.27.083-.406.132-.406h1.367l.232.406h.291a2,2,0,0,0,.073-.348q.03,0,.03.087l-.132-.145a1.387,1.387,0,0,1,.8.406c.116,0,.174-.072.174-.217h-.174l.146-.146.174-.03c.03.31.155.466.378.466,0-.271-.189-.383-.567-.334h.96l-.087.334h.174a.6.6,0,0,0,.422-.2.643.643,0,0,1,.393.218l.175-.1-.074-.174V23.4c0,.029.01.044.03.044,0-.05.164.038.494.26H73.5q0-.216.363-.333a.455.455,0,0,0,.248.058c-.088.058-.049.087.116.087,0-.05.068-.03.2.058a1.2,1.2,0,0,0,.247-.072h.218a.55.55,0,0,0,.073-.131h.262a.919.919,0,0,1,.014.232l.131.146a.766.766,0,0,1-.393-.175v-.087l.117.073c-.407.126-.626.189-.655.189h-.29a3.392,3.392,0,0,1-.539-.058l-.233.13a3.556,3.556,0,0,0-.625-.072h-.073c-.27.165-.407.2-.407.1a.752.752,0,0,0-.349-.1.571.571,0,0,1-.276.145l-.335-.087v.146h-.378v-.132H70.82c-.077.1-.358.165-.843.2,0-.05-.087-.073-.262-.073h-.1a3.784,3.784,0,0,1-.814.146l-.422-.073-.218.13-.29-.057a5.316,5.316,0,0,0-.757.13c-.544-.087-.844-.18-.9-.276h-.1c-.128.135-.215.2-.264.2a.637.637,0,0,0-.363-.131h-.059a3.7,3.7,0,0,0-.814.334l-.1-.058H63.214a2.7,2.7,0,0,0-.509.058.5.5,0,0,0-.248-.058c-.223,0-.334.034-.334.1a.784.784,0,0,0-.422-.1h-.349a3.114,3.114,0,0,0-.465.13h-.233a2.145,2.145,0,0,1-.524-.13l-.814.2a.394.394,0,0,1-.16-.072q-1.79.13-3.04.13h-.233a2.355,2.355,0,0,0-.524.073l-.276-.131-1.7.13-.29-.072c-.146.058-.219.1-.219.13l-.537-.057H51.52a3.561,3.561,0,0,0-.873.145.47.47,0,0,1-.276-.072l-1.993.13-.349-.072a2.38,2.38,0,0,1-.582.146l-.582-.073q-3.765.219-9.642.858c.03.01-.1.242-.379.7a13.929,13.929,0,0,1-.93,1.963q-1.105,3.245-1.106,3.418a.572.572,0,0,0,.058.2,5.865,5.865,0,0,0-.174,1.425v.61a.906.906,0,0,0,.974.859q.947,0,3.52-1.7a12.036,12.036,0,0,0,1.338-.945,19.228,19.228,0,0,0,1.745-2.284l.088.13a5.242,5.242,0,0,1-.48,1.586,10.4,10.4,0,0,1-2.633,2.589,5.232,5.232,0,0,1-1.1.815,4.762,4.762,0,0,1-2.53,1.018,2.643,2.643,0,0,1-1.76-.858,1.262,1.262,0,0,0-.292-.67l.06-.116V34.3a.855.855,0,0,0-.176-.494v-.117l.116-.2v-.407a4.129,4.129,0,0,1,.06-.625.554.554,0,0,1-.06-.19,12.746,12.746,0,0,1,.7-2.37,2.35,2.35,0,0,1,.466-1.294,3.229,3.229,0,0,1,.523-1.353,3.165,3.165,0,0,0,.407-1.018.4.4,0,0,1-.2-.073l-5.018.96a1.363,1.363,0,0,1-.654-.582l.058-.35.145-.32q4.785-1.046,6.648-1.25a4.516,4.516,0,0,0,.887-1.658,11.157,11.157,0,0,0,.8-1.614l.087-.058ZM69.251,23.4h.32v.305l-.16.364a.91.91,0,0,0-.452-.146c0-.31.1-.485.291-.523Zm3.723.044h.261v-.305h-.26v.305Zm1.86.334h.5v-.508h-.5Zm.99-.2h.262v-.305h-.262Zm.494.044c-.174-.03-.26-.121-.26-.276h.26Zm.291,0c.02,0,.03.039.03.116l.51-.131h-.685l.145.015Zm.96-.16v.087c.02,0-.019.049-.116.146h-.029Q77.279,23.507,77.569,23.463Zm.292.392h.261V23.55h-.26v.305Zm1.875-.348h-.305v-.03h.146v.059l.03.058.13-.087Z" transform="translate(-0.85 -0.007)" fill="#f84e7b"/>
  <path id="Path_873" data-name="Path 873" d="M46.793,29.266a9.075,9.075,0,0,1-1.586,3.011,4.665,4.665,0,0,0-.538,1.833c0,.165.1.247.291.247h.247q1.323-.421,4.03-3.375a.475.475,0,0,0,.45-.494c.01-.067.043-.1.1-.1h.043c.05,0,.1.048.146.145v.145a2.039,2.039,0,0,1-.538.887,8.089,8.089,0,0,1-1.906,2.342,6.951,6.951,0,0,1-2.283,1.44h-.189A1.493,1.493,0,0,1,43.52,34.4c0-.1-.015-.145-.044-.145q.045-.189.1-.189l-.058-.1v-.35a6.894,6.894,0,0,1,1.4-2.575,2.244,2.244,0,0,1,.481-.682,2.245,2.245,0,0,0,.305-.742v-.059h-.2a4.468,4.468,0,0,1-2.123.655h-.044a6.945,6.945,0,0,0-.8.989.618.618,0,0,1-.29.087H42.2c-.174,0-.324-.13-.45-.393.02-.174.17-.354.45-.537a.588.588,0,0,1,.088-.249l-.335-.392v-.058a.608.608,0,0,1,.335-.5h.35l.741-.189.35.247a11.561,11.561,0,0,0,2.078-.653,1.747,1.747,0,0,0,.393-.044q.306,0,.6.741Z" transform="translate(-0.85 -0.007)" fill="#f84e7b"/>
  <path id="Path_874" data-name="Path 874" d="M49.76,29.979h.116a.49.49,0,0,1,.467.292v.174a6.929,6.929,0,0,0-.99,3.025v.64a.669.669,0,0,0,.35.64h.464q.771,0,2.736-1.745c.115,0,.232-.116.348-.35a15.62,15.62,0,0,0,1.57-1.63c.059,0,.117-.115.175-.348a1.133,1.133,0,0,1,.524-.232h.058c.077.009.117.049.117.116a9.488,9.488,0,0,1-1.979,3.259A7.493,7.493,0,0,1,50.75,35.8l-.583.117q-2.035-.232-2.036-1.978c-.048,0-.088-.116-.117-.35a5.763,5.763,0,0,1,1.28-3.083l.467-.524Zm3.2-4.77c.408.077.62.116.64.116V25.5q-.2.656-1.92,1.8a2.9,2.9,0,0,1-1.28.524c-.388-.05-.581-.243-.581-.582q0-.437,1.861-1.338A6.254,6.254,0,0,1,52.96,25.209Z" transform="translate(-0.85 -0.007)" fill="#f84e7b"/>
  <path id="Path_875" data-name="Path 875" d="M60.32,23.8h.115a.917.917,0,0,1,.786.408v.058a9.085,9.085,0,0,1-.96,2.326q.03.585-1.745,2.56v.06q1.221,0,1.265,1.047a8.094,8.094,0,0,1-.436,2.21h.174a10.889,10.889,0,0,0,3.375-2.18h.116c.077.008.116.046.116.115q.03.6-1.54,2.123a4.457,4.457,0,0,1-2.08,1.047,5.088,5.088,0,0,0-.758-.058,12.667,12.667,0,0,0-1.382,1.513,4.374,4.374,0,0,1-1.556.465,1.745,1.745,0,0,1-1.294-1.746l-.015-.29.538-2.327a3.085,3.085,0,0,0-.712-.349.633.633,0,0,1-.117-.29c-.009-.059.1-.175.335-.35l.116.06a1.212,1.212,0,0,0,1.295-.816,3.381,3.381,0,0,1,.6-1.048,20.338,20.338,0,0,1,2.807-3.9,9.429,9.429,0,0,1,.96-.64Zm-4.059,7.331a5.626,5.626,0,0,0-.64,2.617q.03.758.436.757.64,0,1.76-1.22l-.014-.06a2.786,2.786,0,0,1-1.41-2.036l-.132-.058Zm1.178-2.5v.057H57.5a8.235,8.235,0,0,0,2.167-2.5c.194-.466.36-.7.495-.7l-.015-.406h-.058q-.334,0-1.28,1.4a9.981,9.981,0,0,0-1.367,2.154Zm.175,2.733a1.168,1.168,0,0,0,.683.931h.175a3.054,3.054,0,0,0,.625-1.8l-.072-.232a.383.383,0,0,0,.043-.234l-.174-.116h-.117q-1.032,0-1.163,1.34Z" transform="translate(-0.85 -0.007)" fill="#f84e7b"/>
  <path id="Path_876" data-name="Path 876" d="M64.756,29.15a1.176,1.176,0,0,1,.8.494A2.275,2.275,0,0,1,65.163,31a4.9,4.9,0,0,1-2.342,1.818l-.654.305v.205q0,.669,1.178.668a6.44,6.44,0,0,0,1.593-.356,6.719,6.719,0,0,0,2.218-1.957,3.515,3.515,0,0,1,.93-1.178h.219a.527.527,0,0,0,.1.335v.13a6.179,6.179,0,0,1-4.465,3.987,2.18,2.18,0,0,0-.626.1,2.371,2.371,0,0,1-2.414-1.8l-.073-.874h.247a4.61,4.61,0,0,1,1.89-2.472,3.5,3.5,0,0,1,1.79-.757Zm-2.415,2.807a3.743,3.743,0,0,0,2.3-1.834v-.058c-.01-.038,0-.058.029-.058a4.158,4.158,0,0,0-2.24,1.95h-.087Zm6.269-1.73.146.29-.233.117h-.35v-.32l.437-.088Z" transform="translate(-0.85 -0.007)" fill="#f84e7b"/>
</svg>
